<svg width="19" height="18" viewBox="0 0 19 18" fill="none" xmlns="http://www.w3.org/2000/svg">
    <path d="M17.1 13.56C17.094 12.7716 16.7779 12.0172 16.22 11.46L15.96 11.19C15.1087 10.3386 13.954 9.86014 12.75 9.86C12.0565 9.86491 11.3731 10.0255 10.75 10.33L9.92 10.75C9.21149 10.3979 8.56341 9.93546 8 9.38C7.44437 8.82275 6.98483 8.17735 6.64 7.47L7.05 6.64C7.47675 5.78971 7.62433 4.82644 7.47171 3.88739C7.31909 2.94834 6.87406 2.08138 6.2 1.41L5.94 1.15C5.6598 0.864134 5.32522 0.637235 4.95598 0.482667C4.58673 0.3281 4.19029 0.248991 3.79 0.25H3C2.20435 0.25 1.44129 0.566071 0.87868 1.12868C0.31607 1.69129 0 2.45435 0 3.25V3.32C0.0330657 4.93408 0.288813 6.53587 0.76 8.08C1.3669 10.0808 2.44746 11.9058 3.91 13.4C5.39563 14.8708 7.21866 15.9557 9.22 16.56C10.7659 17.0396 12.3717 17.2988 13.99 17.33H14.1C14.8956 17.33 15.6587 17.0139 16.2213 16.4513C16.7839 15.8887 17.1 15.1256 17.1 14.33V13.52V13.56ZM14.1 15.36C12.6688 15.3359 11.2482 15.1104 9.88 14.69C8.18707 14.1749 6.64341 13.259 5.38 12.02C4.14411 10.7576 3.23453 9.21306 2.73 7.52C2.28925 6.15471 2.04349 4.73402 2 3.3V3.25C2 2.98478 2.10536 2.73043 2.29289 2.54289C2.48043 2.35536 2.73478 2.25 3 2.25H3.79C3.92231 2.25055 4.05319 2.27735 4.17507 2.32885C4.29694 2.38034 4.40739 2.45551 4.5 2.55L4.76 2.81C5.13607 3.18508 5.38402 3.6694 5.46842 4.1938C5.55283 4.7182 5.46938 5.25586 5.23 5.73L4.6 6.99C4.54057 7.12028 4.50982 7.26181 4.50982 7.405C4.50982 7.54819 4.54057 7.68972 4.6 7.82C5.06297 8.94175 5.7426 9.9612 6.6 10.82C7.45486 11.6822 8.47533 12.3625 9.6 12.82C9.72892 12.878 9.86866 12.9079 10.01 12.9079C10.1513 12.9079 10.2911 12.878 10.42 12.82L11.68 12.19C12.0295 12.0215 12.412 11.9327 12.8 11.93C13.471 11.9306 14.1145 12.1966 14.59 12.67L14.86 12.94C15.0447 13.1263 15.1489 13.3777 15.15 13.64V14.43C15.132 14.6918 15.0118 14.936 14.8154 15.11C14.619 15.2839 14.362 15.3737 14.1 15.36ZM18.36 3.25C18.36 3.51522 18.2546 3.76957 18.0671 3.95711C17.8796 4.14464 17.6252 4.25 17.36 4.25H16.1V5.5C16.1 5.76522 15.9946 6.01957 15.8071 6.20711C15.6196 6.39464 15.3652 6.5 15.1 6.5C14.8348 6.5 14.5804 6.39464 14.3929 6.20711C14.2054 6.01957 14.1 5.76522 14.1 5.5V4.25H12.86C12.5948 4.25 12.3404 4.14464 12.1529 3.95711C11.9654 3.76957 11.86 3.51522 11.86 3.25C11.86 2.98478 11.9654 2.73043 12.1529 2.54289C12.3404 2.35536 12.5948 2.25 12.86 2.25H14.1V1C14.1 0.734784 14.2054 0.48043 14.3929 0.292893C14.5804 0.105357 14.8348 0 15.1 0C15.3652 0 15.6196 0.105357 15.8071 0.292893C15.9946 0.48043 16.1 0.734784 16.1 1V2.25H17.36C17.6252 2.25 17.8796 2.35536 18.0671 2.54289C18.2546 2.73043 18.36 2.98478 18.36 3.25Z" fill="#4C4848"/>
    </svg>
    