<svg width="46" height="45" viewBox="0 0 46 45" fill="none" xmlns="http://www.w3.org/2000/svg">
    <ellipse cx="22.621" cy="22.3347" rx="22.621" ry="22.3347" fill="#4F3FF0"/>
    <path d="M25.8173 20.0841C25.9331 20.1194 26.0562 20.137 26.1801 20.1362H29.9011C30.1478 20.1362 30.3844 20.0578 30.5589 19.9182C30.7333 19.7786 30.8313 19.5893 30.8313 19.392C30.8313 19.1946 30.7333 19.0053 30.5589 18.8657C30.3844 18.7262 30.1478 18.6478 29.9011 18.6478H28.422L31.4825 16.1993C31.5799 16.1326 31.659 16.0505 31.7148 15.9581C31.7707 15.8658 31.802 15.7652 31.807 15.6627C31.8119 15.5602 31.7903 15.458 31.7436 15.3625C31.6968 15.267 31.6259 15.1803 31.5352 15.1078C31.4445 15.0352 31.3361 14.9785 31.2168 14.9411C31.0974 14.9037 30.9696 14.8864 30.8415 14.8904C30.7134 14.8943 30.5877 14.9194 30.4723 14.9641C30.3569 15.0088 30.2543 15.072 30.1709 15.1499L27.1103 17.591V16.4077C27.1103 16.2103 27.0123 16.021 26.8379 15.8814C26.6634 15.7419 26.4268 15.6634 26.1801 15.6634C25.9334 15.6634 25.6968 15.7419 25.5223 15.8814C25.3479 16.021 25.2499 16.2103 25.2499 16.4077V19.3845C25.2488 19.4837 25.2709 19.5821 25.315 19.6748C25.3607 19.7662 25.4286 19.8494 25.5149 19.9197C25.6011 19.99 25.7039 20.0458 25.8173 20.0841ZM29.436 23.061C29.2313 23.061 29.0174 23.0089 28.8127 22.9717C28.3983 22.8986 27.991 22.8016 27.5941 22.6814C27.1625 22.5558 26.6882 22.5623 26.2622 22.6997C25.8363 22.8371 25.489 23.0957 25.2871 23.4256L25.0824 23.7605C24.1764 23.3573 23.3438 22.8565 22.608 22.2721C21.8775 21.6834 21.2515 21.0173 20.7475 20.2925L21.1382 20.0841C21.5506 19.9225 21.8738 19.6447 22.0455 19.3039C22.2173 18.9632 22.2254 18.5837 22.0684 18.2384C21.9207 17.9202 21.7995 17.5945 21.7056 17.2635C21.6591 17.0998 21.6219 16.9286 21.594 16.7574C21.481 16.2332 21.1378 15.7585 20.6262 15.4188C20.1145 15.079 19.4681 14.8966 18.8032 14.9043H16.0125C15.6116 14.9013 15.2146 14.9675 14.8485 15.0982C14.4824 15.229 14.1558 15.4213 13.891 15.6622C13.6262 15.903 13.4293 16.1866 13.3138 16.4938C13.1984 16.8009 13.1669 17.1244 13.2218 17.4421C13.7173 20.5599 15.4972 23.4568 18.2801 25.6751C21.0631 27.8935 24.6905 29.3068 28.5894 29.6919H28.9429C29.6289 29.6927 30.2912 29.4914 30.8034 29.1263C31.0977 28.9157 31.3328 28.6576 31.4932 28.369C31.6535 28.0803 31.7355 27.7677 31.7337 27.4518V25.2192C31.7223 24.7022 31.487 24.2045 31.0679 23.8109C30.6489 23.4173 30.0721 23.1522 29.436 23.061ZM29.9011 27.5263C29.9009 27.6319 29.8726 27.7364 29.8181 27.8326C29.7636 27.9288 29.684 28.0147 29.5848 28.0844C29.4809 28.1562 29.3593 28.2099 29.228 28.2419C29.0966 28.2739 28.9583 28.2837 28.822 28.2705C25.3381 27.9131 22.1021 26.638 19.6244 24.6464C17.1467 22.6547 15.5682 20.0598 15.1381 17.271C15.1233 17.1619 15.1362 17.0517 15.1762 16.9468C15.2162 16.8419 15.2823 16.7446 15.3706 16.6607C15.4578 16.5813 15.5651 16.5177 15.6854 16.4741C15.8057 16.4304 15.9362 16.4078 16.0683 16.4077H18.8591C19.0754 16.4038 19.2866 16.4604 19.4564 16.5677C19.6262 16.675 19.7439 16.8263 19.7893 16.9956C19.8265 17.199 19.873 17.3999 19.9288 17.5984C20.0363 17.9907 20.1793 18.3762 20.3568 18.7519L19.0544 19.2357C18.9431 19.2766 18.8429 19.3346 18.7597 19.4066C18.6764 19.4785 18.6118 19.5629 18.5694 19.6548C18.5271 19.7468 18.5079 19.8446 18.5129 19.9425C18.5179 20.0404 18.547 20.1366 18.5986 20.2255C19.9374 22.5197 22.2426 24.3639 25.1103 25.435C25.3368 25.5094 25.5908 25.5094 25.8173 25.435C25.9333 25.4018 26.0399 25.3505 26.131 25.2841C26.222 25.2176 26.2956 25.1374 26.3475 25.048L26.9243 24.0061C27.4052 24.1437 27.896 24.258 28.3941 24.3485C28.6422 24.3931 28.8933 24.4303 29.1476 24.4601C29.3592 24.4964 29.5483 24.5906 29.6824 24.7264C29.8165 24.8622 29.8873 25.0312 29.8825 25.2043L29.9011 27.5263Z" fill="white"/>
    </svg>
    