<svg width="46" height="46" viewBox="0 0 46 46" fill="none" xmlns="http://www.w3.org/2000/svg">
    <ellipse cx="22.621" cy="22.8939" rx="22.621" ry="22.3347" fill="#FFB33F"/>
    <path d="M24.8282 18.6955H28.042L27.3328 19.2701C27.1656 19.4046 27.0717 19.5866 27.0717 19.7764C27.0717 19.9661 27.1656 20.1481 27.3328 20.2827C27.501 20.4165 27.7285 20.4915 27.9657 20.4915C28.2028 20.4915 28.4304 20.4165 28.5985 20.2827L30.8428 18.4872C31.01 18.3527 31.1039 18.1706 31.1039 17.9809C31.1039 17.7912 31.01 17.6092 30.8428 17.4746L28.5985 15.6791C28.4268 15.5615 28.2059 15.5 27.98 15.507C27.754 15.514 27.5397 15.5889 27.3799 15.7168C27.22 15.8447 27.1263 16.0162 27.1176 16.1969C27.1089 16.3777 27.1857 16.5544 27.3328 16.6918L28.042 17.2591H24.8282C24.5901 17.2591 24.3618 17.3348 24.1934 17.4695C24.0251 17.6042 23.9305 17.7868 23.9305 17.9773C23.9305 18.1678 24.0251 18.3505 24.1934 18.4852C24.3618 18.6198 24.5901 18.6955 24.8282 18.6955ZM28.8679 23.3206C28.6704 23.3206 28.4639 23.2703 28.2664 23.2344C27.8665 23.1639 27.4734 23.0703 27.0904 22.9543C26.6739 22.8331 26.2162 22.8394 25.8052 22.972C25.3942 23.1046 25.059 23.3541 24.8641 23.6725L24.6666 23.9957C23.7922 23.6066 22.9888 23.1233 22.2787 22.5593C21.5738 21.9913 20.9697 21.3485 20.4833 20.649L20.8603 20.4479C21.2583 20.292 21.5702 20.0238 21.7359 19.695C21.9017 19.3662 21.9095 19 21.758 18.6668C21.6155 18.3597 21.4985 18.0454 21.4079 17.726C21.363 17.568 21.3271 17.4028 21.3002 17.2376C21.1912 16.7317 20.86 16.2736 20.3662 15.9458C19.8725 15.6179 19.2487 15.4419 18.6071 15.4493H15.914C15.5271 15.4464 15.144 15.5102 14.7907 15.6364C14.4374 15.7626 14.1222 15.9482 13.8667 16.1806C13.6111 16.413 13.4212 16.6867 13.3097 16.9832C13.1983 17.2796 13.1679 17.5917 13.2208 17.8983C13.6991 20.9071 15.4167 23.7026 18.1023 25.8433C20.7879 27.9841 24.2884 29.348 28.0509 29.7196H28.3921C29.0541 29.7204 29.6932 29.5261 30.1875 29.1738C30.4715 28.9706 30.6984 28.7215 30.8531 28.4429C31.0079 28.1644 31.087 27.8627 31.0852 27.5579V25.4033C31.0742 24.9045 30.8471 24.4241 30.4427 24.0443C30.0384 23.6645 29.4817 23.4087 28.8679 23.3206ZM29.3167 27.6297C29.3166 27.7317 29.2892 27.8325 29.2366 27.9253C29.184 28.0182 29.1073 28.101 29.0115 28.1683C28.9112 28.2376 28.7939 28.2894 28.6671 28.3203C28.5404 28.3512 28.4069 28.3606 28.2754 28.3479C24.9134 28.003 21.7906 26.7725 19.3995 24.8505C17.0084 22.9285 15.4852 20.4244 15.0701 17.7331C15.0558 17.6279 15.0684 17.5215 15.1069 17.4203C15.1455 17.3191 15.2093 17.2252 15.2945 17.1442C15.3787 17.0676 15.4822 17.0062 15.5983 16.9641C15.7144 16.922 15.8404 16.9002 15.9678 16.9H18.6609C18.8697 16.8963 19.0735 16.951 19.2374 17.0545C19.4012 17.1581 19.5148 17.3041 19.5586 17.4674C19.5946 17.6637 19.6394 17.8576 19.6933 18.0491C19.797 18.4277 19.935 18.7998 20.1062 19.1623L18.8495 19.6291C18.742 19.6686 18.6453 19.7246 18.565 19.794C18.4847 19.8634 18.4223 19.9449 18.3815 20.0336C18.3406 20.1224 18.322 20.2167 18.3269 20.3112C18.3317 20.4057 18.3598 20.4985 18.4096 20.5843C19.7016 22.7983 21.9261 24.578 24.6935 25.6116C24.9121 25.6834 25.1572 25.6834 25.3758 25.6116C25.4877 25.5796 25.5906 25.5301 25.6785 25.466C25.7663 25.4018 25.8373 25.3244 25.8875 25.2382L26.4441 24.2327C26.9081 24.3655 27.3818 24.4758 27.8624 24.5631C28.1018 24.6062 28.3442 24.6421 28.5896 24.6708C28.7937 24.7058 28.9762 24.7967 29.1057 24.9278C29.2351 25.0589 29.3034 25.222 29.2988 25.389L29.3167 27.6297Z" fill="white"/>
    </svg>
    