<svg width="46" height="45" viewBox="0 0 46 45" fill="none" xmlns="http://www.w3.org/2000/svg">
    <ellipse cx="22.621" cy="22.4531" rx="22.621" ry="22.3347" fill="#FF523A"/>
    <path d="M16.9239 18.3316C17.1744 18.3316 17.4146 18.2421 17.5917 18.0827C17.7688 17.9233 17.8683 17.7072 17.8683 17.4818V16.9805L20.5879 19.4278C21.119 19.9052 21.8391 20.1734 22.5898 20.1734C23.3405 20.1734 24.0606 19.9052 24.5917 19.4278L28.9261 15.5273C29.102 15.3681 29.2007 15.1527 29.2007 14.9282C29.2007 14.7037 29.102 14.4883 28.9261 14.3291C28.8383 14.2495 28.7339 14.1863 28.6188 14.1431C28.5037 14.1 28.3803 14.0778 28.2556 14.0778C28.131 14.0778 28.0076 14.1 27.8925 14.1431C27.7774 14.1863 27.673 14.2495 27.5852 14.3291L23.2603 18.2211C23.1725 18.3008 23.068 18.364 22.953 18.4071C22.8379 18.4503 22.7145 18.4725 22.5898 18.4725C22.4651 18.4725 22.3417 18.4503 22.2266 18.4071C22.1116 18.364 22.0071 18.3008 21.9193 18.2211L19.1997 15.7823H19.7569C20.0073 15.7823 20.2475 15.6927 20.4246 15.5334C20.6017 15.374 20.7012 15.1578 20.7012 14.9325C20.7012 14.7071 20.6017 14.4909 20.4246 14.3316C20.2475 14.1722 20.0073 14.0827 19.7569 14.0827H16.9239C16.7386 14.0828 16.5574 14.132 16.4029 14.2242C16.2484 14.3164 16.1275 14.4475 16.0552 14.6011C16.0076 14.7064 15.982 14.8188 15.9796 14.9325V17.4818C15.9796 17.7072 16.0791 17.9233 16.2562 18.0827C16.4333 18.2421 16.6735 18.3316 16.9239 18.3316ZM31.9762 24.586C29.2872 22.7186 25.9864 21.7057 22.5898 21.7057C19.1932 21.7057 15.8924 22.7186 13.2034 24.586C12.9197 24.7918 12.6886 25.0501 12.5257 25.3433C12.3627 25.6366 12.2718 25.9579 12.2591 26.2856C12.2344 26.6092 12.2874 26.9338 12.4145 27.2373C12.5416 27.5408 12.7398 27.8162 12.9956 28.0447L14.6576 29.5743C15.0823 29.9563 15.6441 30.19 16.2427 30.2336C16.8412 30.2772 17.4375 30.1278 17.9249 29.8122L18.3687 29.5403C18.6709 29.3648 18.9865 29.2086 19.313 29.0729C19.7144 28.9134 20.0344 28.6237 20.2094 28.2616C20.3844 27.8995 20.4015 27.4914 20.2574 27.1184L20.1724 26.9144C21.7892 26.5407 23.4848 26.5407 25.1017 26.9144L25.0167 27.1184C24.8725 27.4914 24.8896 27.8995 25.0646 28.2616C25.2396 28.6237 25.5596 28.9134 25.961 29.0729C26.2875 29.2086 26.6031 29.3648 26.9053 29.5403L27.3491 29.8122C27.7706 30.0906 28.2805 30.2396 28.8033 30.2371C29.4826 30.2379 30.1345 29.9965 30.6164 29.5658L32.3256 28.0192C32.565 27.7851 32.7468 27.5081 32.859 27.2065C32.9713 26.9048 33.0116 26.5852 32.9772 26.2686C32.9549 25.9398 32.8539 25.6192 32.6812 25.3288C32.5084 25.0384 32.2679 24.785 31.9762 24.586ZM30.8997 26.8295L29.2 28.3676C29.0966 28.4644 28.9591 28.5259 28.8109 28.5414C28.6627 28.5569 28.5131 28.5255 28.3878 28.4525C28.2084 28.3336 28.029 28.2231 27.8307 28.1126C27.4982 27.9234 27.1546 27.7504 26.8014 27.5943L27.1791 26.668C27.2642 26.4561 27.2523 26.2226 27.146 26.0186C27.0398 25.8146 26.8479 25.657 26.6125 25.5803C24.0203 24.7307 21.1782 24.7307 18.5859 25.5803C18.3506 25.657 18.1587 25.8146 18.0524 26.0186C17.9462 26.2226 17.9343 26.4561 18.0193 26.668L18.3971 27.6028C18.0391 27.7526 17.6921 27.9229 17.3583 28.1126L16.8106 28.4525C16.6851 28.5336 16.5305 28.5698 16.3769 28.5541C16.2234 28.5384 16.0818 28.4719 15.9796 28.3676L14.2799 26.8295C14.2186 26.7752 14.1703 26.7103 14.1378 26.6388C14.1054 26.5672 14.0894 26.4904 14.091 26.4131C14.0989 26.3258 14.1263 26.2408 14.1718 26.1634C14.2172 26.086 14.2797 26.0177 14.3554 25.9627C16.7155 24.3268 19.6108 23.4397 22.5898 23.4397C25.5688 23.4397 28.4641 24.3268 30.8242 25.9627C30.8999 26.0177 30.9623 26.086 31.0078 26.1634C31.0532 26.2408 31.0807 26.3258 31.0886 26.4131C31.0902 26.4904 31.0742 26.5672 31.0418 26.6388C31.0093 26.7103 30.961 26.7752 30.8997 26.8295Z" fill="white"/>
    </svg>
    