<svg width="16" height="15" viewBox="0 0 16 15" fill="none" xmlns="http://www.w3.org/2000/svg">
    <path d="M3.95787 1.82432C3.95787 2.83187 3.14158 3.64865 2.13464 3.64865C1.12769 3.64865 0.311401 2.83187 0.311401 1.82432C0.311401 0.816778 1.12769 0 2.13464 0C3.14158 0 3.95787 0.816778 3.95787 1.82432Z" fill="#80808F"/>
    <path d="M15.3024 1.82432C15.3024 2.83187 14.4861 3.64865 13.4792 3.64865C12.4723 3.64865 11.656 2.83187 11.656 1.82432C11.656 0.816778 12.4723 0 13.4792 0C14.4861 0 15.3024 0.816778 15.3024 1.82432Z" fill="#80808F"/>
    <path d="M9.63015 1.82432C9.63015 2.83187 8.81386 3.64865 7.80692 3.64865C6.79997 3.64865 5.98368 2.83187 5.98368 1.82432C5.98368 0.816778 6.79997 0 7.80692 0C8.81386 0 9.63015 0.816778 9.63015 1.82432Z" fill="#80808F"/>
    <path d="M3.95787 7.5C3.95787 8.50755 3.14158 9.32432 2.13464 9.32432C1.12769 9.32432 0.311401 8.50755 0.311401 7.5C0.311401 6.49245 1.12769 5.67568 2.13464 5.67568C3.14158 5.67568 3.95787 6.49245 3.95787 7.5Z" fill="#80808F"/>
    <path d="M15.3024 7.5C15.3024 8.50755 14.4861 9.32432 13.4792 9.32432C12.4723 9.32432 11.656 8.50755 11.656 7.5C11.656 6.49245 12.4723 5.67568 13.4792 5.67568C14.4861 5.67568 15.3024 6.49245 15.3024 7.5Z" fill="#80808F"/>
    <path d="M9.63015 7.5C9.63015 8.50755 8.81386 9.32432 7.80692 9.32432C6.79997 9.32432 5.98368 8.50755 5.98368 7.5C5.98368 6.49245 6.79997 5.67568 7.80692 5.67568C8.81386 5.67568 9.63015 6.49245 9.63015 7.5Z" fill="#80808F"/>
    <path d="M3.95787 13.1757C3.95787 14.1832 3.14158 15 2.13464 15C1.12769 15 0.311401 14.1832 0.311401 13.1757C0.311401 12.1681 1.12769 11.3514 2.13464 11.3514C3.14158 11.3514 3.95787 12.1681 3.95787 13.1757Z" fill="#80808F"/>
    <path d="M15.3024 13.1757C15.3024 14.1832 14.4861 15 13.4792 15C12.4723 15 11.656 14.1832 11.656 13.1757C11.656 12.1681 12.4723 11.3514 13.4792 11.3514C14.4861 11.3514 15.3024 12.1681 15.3024 13.1757Z" fill="#80808F"/>
    <path d="M9.63015 13.1757C9.63015 14.1832 8.81386 15 7.80692 15C6.79997 15 5.98368 14.1832 5.98368 13.1757C5.98368 12.1681 6.79997 11.3514 7.80692 11.3514C8.81386 11.3514 9.63015 12.1681 9.63015 13.1757Z" fill="#80808F"/>
    </svg>
    